<?xml version="1.0" encoding="UTF-8"?>
<svg width="767px" height="311px" viewBox="0 0 767 311" version="1.1" xmlns="http://www.w3.org/2000/svg" xmlns:xlink="http://www.w3.org/1999/xlink">
    <!-- Generator: sketchtool 47.1 (45422) - http://www.bohemiancoding.com/sketch -->
    <title>AC2ACB4C-05F6-460A-8019-05A949F8D61D</title>
    <desc>Created with sketchtool.</desc>
    <defs>
        <rect id="path-1" x="5.68434189e-14" y="0" width="760" height="303.010462"></rect>
        <rect id="path-2" x="189" y="0" width="192" height="303.010462"></rect>
        <filter x="-3.1%" y="-2.0%" width="106.2%" height="104.0%" filterUnits="objectBoundingBox" id="filter-3">
            <feOffset dx="0" dy="0" in="SourceAlpha" result="shadowOffsetOuter1"></feOffset>
            <feGaussianBlur stdDeviation="2" in="shadowOffsetOuter1" result="shadowBlurOuter1"></feGaussianBlur>
            <feComposite in="shadowBlurOuter1" in2="SourceAlpha" operator="out" result="shadowBlurOuter1"></feComposite>
            <feColorMatrix values="0 0 0 0 0   0 0 0 0 0   0 0 0 0 0  0 0 0 0.254189312 0" type="matrix" in="shadowBlurOuter1"></feColorMatrix>
        </filter>
        <path d="M2,45.5 L759.5,45.5" id="path-4"></path>
        <filter x="-1.0%" y="-183.3%" width="102.0%" height="600.0%" filterUnits="objectBoundingBox" id="filter-5">
            <feMorphology radius="0.5" operator="dilate" in="SourceAlpha" result="shadowSpreadOuter1"></feMorphology>
            <feOffset dx="0" dy="2" in="shadowSpreadOuter1" result="shadowOffsetOuter1"></feOffset>
            <feMorphology radius="1" operator="erode" in="SourceAlpha" result="shadowInner"></feMorphology>
            <feOffset dx="0" dy="2" in="shadowInner" result="shadowInner"></feOffset>
            <feComposite in="shadowOffsetOuter1" in2="shadowInner" operator="out" result="shadowOffsetOuter1"></feComposite>
            <feGaussianBlur stdDeviation="2" in="shadowOffsetOuter1" result="shadowBlurOuter1"></feGaussianBlur>
            <feColorMatrix values="0 0 0 0 0   0 0 0 0 0   0 0 0 0 0  0 0 0 0.196076766 0" type="matrix" in="shadowBlurOuter1"></feColorMatrix>
        </filter>
    </defs>
    <g id="权限列表" stroke="none" stroke-width="1" fill="none" fill-rule="evenodd">
        <g id="权限列表0118" transform="translate(-204.000000, -813.000000)">
            <g id="Group-11" transform="translate(207.000000, 817.000000)">
                <g id="Rectangle-7-Copy-4">
                    <use fill="#FFFFFF" fill-rule="evenodd" xlink:href="#path-1"></use>
                    <rect stroke="#CCCCCC" stroke-width="1" x="0.5" y="0.5" width="759" height="302.010462"></rect>
                </g>
                <g id="Rectangle-7-Copy-5">
                    <use fill="black" fill-opacity="1" filter="url(#filter-3)" xlink:href="#path-2"></use>
                    <use fill="#FFFFFF" fill-rule="evenodd" xlink:href="#path-2"></use>
                    <rect stroke="#F5A623" stroke-width="1" x="189.5" y="0.5" width="191" height="302.010462"></rect>
                </g>
                <rect id="Rectangle-7-Copy-6" fill-opacity="0.704427083" fill="#EFF9F4" opacity="0.5" x="0" y="88" width="760" height="44"></rect>
                <rect id="Rectangle-7-Copy-7" fill-opacity="0.704427083" fill="#EFF9F4" opacity="0.5" x="0" y="174" width="760" height="44"></rect>
                <rect id="Rectangle-7-Copy-8" fill-opacity="0.704427083" fill="#EFF9F4" opacity="0.5" x="0" y="259" width="760" height="44"></rect>
                <polygon id="Shape-Copy-5" fill="#44C358" points="282.454545 70.4318182 279.113636 67.0909091 278 68.2045455 282.454545 72.6590909 292 63.1136364 290.886364 62"></polygon>
                <polygon id="Shape-Copy-10" fill="#44C358" points="474.454545 70.4318182 471.113636 67.0909091 470 68.2045455 474.454545 72.6590909 484 63.1136364 482.886364 62"></polygon>
                <polygon id="Shape-Copy-11" fill="#44C358" points="661.454545 70.4318182 658.113636 67.0909091 657 68.2045455 661.454545 72.6590909 671 63.1136364 669.886364 62"></polygon>
                <polygon id="Shape-Copy-29" fill="#44C358" points="474.454545 158.431818 471.113636 155.090909 470 156.204545 474.454545 160.659091 484 151.113636 482.886364 150"></polygon>
                <polygon id="Shape-Copy-30" fill="#44C358" points="661.454545 158.431818 658.113636 155.090909 657 156.204545 661.454545 160.659091 671 151.113636 669.886364 150"></polygon>
                <polygon id="Shape-Copy-12" fill="#44C358" points="474.454545 113.431818 471.113636 110.090909 470 111.204545 474.454545 115.659091 484 106.113636 482.886364 105"></polygon>
                <polygon id="Shape-Copy-31" fill="#44C358" points="661.454545 113.431818 658.113636 110.090909 657 111.204545 661.454545 115.659091 671 106.113636 669.886364 105"></polygon>
                <polygon id="Shape-Copy-32" fill="#44C358" points="474.454545 198.431818 471.113636 195.090909 470 196.204545 474.454545 200.659091 484 191.113636 482.886364 190"></polygon>
                <polygon id="Shape-Copy-33" fill="#44C358" points="661.454545 198.431818 658.113636 195.090909 657 196.204545 661.454545 200.659091 671 191.113636 669.886364 190"></polygon>
                <polygon id="Shape-Copy-34" fill="#44C358" points="474.454545 239.431818 471.113636 236.090909 470 237.204545 474.454545 241.659091 484 232.113636 482.886364 231"></polygon>
                <polygon id="Shape-Copy-35" fill="#44C358" points="661.454545 239.431818 658.113636 236.090909 657 237.204545 661.454545 241.659091 671 232.113636 669.886364 231"></polygon>
                <polygon id="Shape-Copy-38" fill="#44C358" points="282.454545 113.431818 279.113636 110.090909 278 111.204545 282.454545 115.659091 292 106.113636 290.886364 105"></polygon>
                <polygon id="Shape-Copy-39" fill="#FF7777" points="292 149.4 290.6 148 285 153.6 279.4 148 278 149.4 283.6 155 278 160.6 279.4 162 285 156.4 290.6 162 292 160.6 286.4 155"></polygon>
                <polygon id="Shape-Copy-40" fill="#FF7777" points="292 189.4 290.6 188 285 193.6 279.4 188 278 189.4 283.6 195 278 200.6 279.4 202 285 196.4 290.6 202 292 200.6 286.4 195"></polygon>
                <polygon id="Shape-Copy-41" fill="#FF7777" points="292 230.4 290.6 229 285 234.6 279.4 229 278 230.4 283.6 236 278 241.6 279.4 243 285 237.4 290.6 243 292 241.6 286.4 236"></polygon>
                <path d="M1,88.5 L759.983892,88.5" id="Line-Copy-12" stroke="#F5F5F5" stroke-linecap="square"></path>
                <g id="Line-Copy-21" opacity="0.800000012" stroke-linecap="square">
                    <use fill="black" fill-opacity="1" filter="url(#filter-5)" xlink:href="#path-4"></use>
                    <use stroke="#E2E2E2" stroke-width="1" xlink:href="#path-4"></use>
                </g>
                <path d="M1,131.5 L759.983892,131.5" id="Line-Copy-22" stroke="#F5F5F5" stroke-linecap="square"></path>
                <path d="M1,174.5 L759.983892,174.5" id="Line-Copy-23" stroke="#F5F5F5" stroke-linecap="square"></path>
                <path d="M1,216.5 L759.983892,216.5" id="Line-Copy-24" stroke="#F5F5F5" stroke-linecap="square"></path>
                <path d="M0,259.5 L758.983892,259.5" id="Line-Copy-25" stroke="#F5F5F5" stroke-linecap="square"></path>
                <path d="M0,302.5 L758.983892,302.5" id="Line-Copy-26" stroke="#F5F5F5" stroke-linecap="square"></path>
                <path d="M379.5,6.47165812 L379.5,300.79237" id="Line-Copy-27" stroke="#F5F5F5" stroke-linecap="square"></path>
                <path d="M567.5,6.47164183 L567.5,302.561947" id="Line-Copy-28" stroke="#F5F5F5" stroke-linecap="square"></path>
                <path d="M255.272,14.992 C256.36,15.792 257.288,16.576 258.056,17.36 L256.872,18.56 C256.216,17.808 255.288,17.008 254.072,16.144 L255.272,14.992 Z M254.888,18.736 L253.704,19.888 C254.84,20.768 255.72,21.584 256.344,22.32 L257.528,21.136 C256.808,20.336 255.928,19.536 254.888,18.736 Z M256.488,23.264 C255.752,25.152 254.904,27.008 253.928,28.8 L255.608,29.536 C256.488,27.776 257.288,25.888 257.992,23.888 L256.488,23.264 Z M258.424,17.376 L262.456,17.376 C262.184,16.624 261.864,15.904 261.512,15.216 L263.064,14.768 C263.512,15.728 263.864,16.592 264.104,17.376 L267.992,17.376 L267.992,19.008 L264.088,19.008 L264.088,22.256 L267.56,22.256 L267.56,23.856 L264.088,23.856 L264.088,27.504 L268.328,27.504 L268.328,29.136 L258.04,29.136 L258.04,27.504 L262.408,27.504 L262.408,23.856 L258.872,23.856 L258.872,22.256 L262.408,22.256 L262.408,19.008 L258.424,19.008 L258.424,17.376 Z M269.672,21.056 L271.432,21.056 L271.432,15.36 L276.392,15.36 L276.392,21.056 L277.768,21.056 L277.768,15.36 L282.744,15.36 L282.744,21.056 L284.328,21.056 L284.328,22.672 L282.744,22.672 L282.744,27.856 C282.744,28.944 282.152,29.488 280.984,29.488 L279.608,29.488 L279.176,27.92 C279.64,27.952 280.072,27.984 280.472,27.984 C280.888,27.984 281.112,27.744 281.112,27.264 L281.112,22.672 L279.352,22.672 L279.352,22.96 C279.32,25.728 278.824,27.968 277.864,29.696 L276.648,28.592 C277.368,27.152 277.736,25.312 277.768,23.072 L277.768,22.672 L276.392,22.672 L276.392,27.84 C276.392,28.928 275.88,29.488 274.872,29.488 L273.448,29.488 L273,27.92 C273.496,27.952 273.96,27.984 274.376,27.984 C274.664,27.984 274.808,27.744 274.808,27.28 L274.808,22.672 L273.064,22.672 L273.064,22.928 C273.032,25.712 272.456,27.984 271.336,29.712 L270.104,28.576 C270.968,27.136 271.4,25.296 271.432,23.056 L271.432,22.672 L269.672,22.672 L269.672,21.056 Z M281.112,21.056 L281.112,16.864 L279.352,16.864 L279.352,21.056 L281.112,21.056 Z M274.808,21.056 L274.808,16.864 L273.064,16.864 L273.064,21.056 L274.808,21.056 Z M288.696,20.768 L288.696,23.072 L292.216,23.072 L292.216,20.768 L288.696,20.768 Z M288.616,24.608 C288.408,26.592 287.816,28.256 286.84,29.568 L285.56,28.416 C286.504,27.072 286.984,25.36 287.016,23.28 L287.016,15.36 L299.416,15.36 L299.416,27.44 C299.416,28.672 298.776,29.296 297.512,29.296 L295.672,29.296 L295.224,27.664 C295.864,27.728 296.44,27.76 296.984,27.76 C297.464,27.76 297.72,27.44 297.72,26.832 L297.72,24.608 L293.912,24.608 L293.912,29.12 L292.216,29.12 L292.216,24.608 L288.616,24.608 Z M297.72,23.072 L297.72,20.768 L293.912,20.768 L293.912,23.072 L297.72,23.072 Z M297.72,19.232 L297.72,16.992 L293.912,16.992 L293.912,19.232 L297.72,19.232 Z M292.216,16.992 L288.696,16.992 L288.696,19.232 L292.216,19.232 L292.216,16.992 Z M313.432,18.288 L304.888,18.288 L304.888,20.832 L313.432,20.832 L313.432,18.288 Z M304.872,22.464 C304.776,25.28 304.056,27.712 302.68,29.76 L301.432,28.624 C302.616,26.912 303.224,24.688 303.24,21.968 L303.24,16.656 L308.344,16.656 C308.088,16.064 307.816,15.52 307.512,15.008 L309.304,14.72 C309.56,15.296 309.8,15.936 310.056,16.656 L315.128,16.656 L315.128,22.464 L304.872,22.464 Z" id="注册用户-copy" fill="#333333"></path>
                <path d="M73.112,63.46 C74.862,63.11 76.71,62.578 78.642,61.85 L78.082,61.052 C76.458,61.724 74.806,62.228 73.112,62.564 L73.112,60.646 L72.146,60.646 L72.146,64.538 C72.146,65.35 72.552,65.77 73.364,65.77 L77.382,65.77 C77.914,65.77 78.32,65.658 78.572,65.434 C78.852,65.182 79.048,64.482 79.146,63.306 L78.222,63.012 C78.166,63.908 78.04,64.44 77.872,64.622 C77.732,64.762 77.508,64.832 77.2,64.832 L73.658,64.832 C73.294,64.832 73.112,64.664 73.112,64.328 L73.112,63.46 Z M68.534,73.274 C69.304,73.274 69.696,72.854 69.696,72.028 L69.696,68.08 C70.27,67.856 70.844,67.604 71.404,67.352 L71.404,66.33 C70.844,66.596 70.284,66.848 69.696,67.086 L69.696,64.216 L71.25,64.216 L71.25,63.25 L69.696,63.25 L69.696,60.618 L68.73,60.618 L68.73,63.25 L66.84,63.25 L66.84,64.216 L68.73,64.216 L68.73,67.422 C68.03,67.646 67.33,67.842 66.616,67.996 L66.854,69.004 C67.484,68.836 68.114,68.64 68.73,68.43 L68.73,71.776 C68.73,72.168 68.548,72.378 68.184,72.378 C67.764,72.378 67.316,72.35 66.84,72.308 L67.05,73.274 L68.534,73.274 Z M78.642,66.848 L78.642,73.4 L77.634,73.4 L77.634,72.686 L73.252,72.686 L73.252,73.4 L72.258,73.4 L72.258,66.848 L78.642,66.848 Z M73.252,71.79 L77.634,71.79 L77.634,70.194 L73.252,70.194 L73.252,71.79 Z M73.252,69.298 L77.634,69.298 L77.634,67.73 L73.252,67.73 L73.252,69.298 Z M80.77,61.878 L86.566,61.878 L86.734,60.478 L87.756,60.618 C87.714,61.052 87.672,61.472 87.616,61.878 L93.23,61.878 L93.23,62.83 L87.462,62.83 C87.378,63.334 87.28,63.796 87.182,64.244 L92.488,64.244 L92.488,71.972 C92.488,72.854 92.068,73.302 91.242,73.302 L89.87,73.302 L89.604,72.322 L90.906,72.35 C91.298,72.35 91.494,72.14 91.494,71.748 L91.494,65.196 L82.534,65.196 L82.534,73.386 L81.54,73.386 L81.54,64.244 L86.146,64.244 C86.244,63.768 86.342,63.292 86.426,62.83 L80.77,62.83 L80.77,61.878 Z M85.432,65.644 C85.726,66.134 86.006,66.722 86.258,67.394 L87.728,67.394 C88.036,66.82 88.316,66.218 88.568,65.574 L89.492,65.91 C89.24,66.456 88.974,66.946 88.694,67.394 L90.29,67.394 L90.29,68.276 L87.49,68.276 L87.49,69.746 L90.71,69.746 L90.71,70.642 L87.49,70.642 L87.49,73.176 L86.51,73.176 L86.51,70.642 L83.304,70.642 L83.304,69.746 L86.51,69.746 L86.51,68.276 L83.752,68.276 L83.752,67.394 L85.292,67.394 C85.082,66.89 84.83,66.414 84.536,65.98 L85.432,65.644 Z M94.77,61.304 L94.77,62.298 L100.118,62.298 L100.118,73.428 L101.14,73.428 L101.14,65.476 C102.4,66.148 103.968,67.1 105.83,68.332 L106.432,67.436 C104.64,66.288 102.876,65.28 101.14,64.412 L101.14,62.298 L107.216,62.298 L107.216,61.304 L94.77,61.304 Z M109.568,61.696 L112.298,61.696 L112.298,60.52 L113.278,60.52 L113.278,61.696 L115.812,61.696 L115.812,62.62 L113.278,62.62 L113.278,63.908 L116.638,63.908 C116.582,62.858 116.554,61.724 116.554,60.492 L117.534,60.492 C117.534,61.766 117.562,62.9 117.618,63.908 L121.146,63.908 L121.146,64.818 L117.674,64.818 C117.758,66.064 117.87,67.086 118.024,67.87 C118.108,68.276 118.192,68.654 118.276,69.018 C118.78,68.01 119.186,66.834 119.494,65.518 L120.39,65.924 C119.942,67.674 119.368,69.144 118.668,70.32 C118.78,70.642 118.906,70.922 119.032,71.174 C119.396,71.86 119.69,72.21 119.914,72.21 C120.138,72.196 120.334,71.454 120.502,69.97 L121.37,70.432 C121.062,72.294 120.628,73.232 120.04,73.232 C119.564,73.232 119.046,72.798 118.5,71.958 C118.346,71.72 118.206,71.468 118.094,71.202 C117.366,72.154 116.54,72.868 115.616,73.372 L115.07,72.56 C116.078,72 116.946,71.188 117.66,70.11 C117.464,69.494 117.282,68.822 117.128,68.08 C116.932,67.156 116.778,66.078 116.694,64.818 L108.84,64.818 L108.84,63.908 L112.298,63.908 L112.298,62.62 L109.568,62.62 L109.568,61.696 Z M118.976,60.674 C119.676,61.458 120.222,62.144 120.6,62.732 L119.844,63.264 C119.452,62.634 118.906,61.934 118.206,61.164 L118.976,60.674 Z M115.812,70.544 L115.812,71.44 C115.112,71.524 114.384,71.622 113.628,71.706 L113.628,73.358 L112.634,73.358 L112.634,71.804 C111.626,71.902 110.562,71.986 109.442,72.07 L109.316,71.132 C110.492,71.062 111.598,70.978 112.634,70.894 L112.634,69.648 L109.904,69.648 L109.708,68.822 C110.1,68.346 110.464,67.772 110.8,67.072 L109.26,67.072 L109.26,66.176 L111.192,66.176 C111.332,65.84 111.458,65.476 111.584,65.112 L112.55,65.294 C112.438,65.602 112.326,65.896 112.214,66.176 L115.882,66.176 L115.882,67.072 L111.822,67.072 C111.514,67.716 111.178,68.29 110.828,68.794 L112.634,68.794 L112.634,67.702 L113.628,67.702 L113.628,68.794 L115.756,68.794 L115.756,69.648 L113.628,69.648 L113.628,70.796 C114.398,70.712 115.126,70.628 115.812,70.544 Z" id="指南下载-copy" fill="#333333"></path>
                <path d="M70.62,104.122 L78.446,104.122 L78.446,105.06 L74.638,105.06 C74.498,105.69 74.344,106.278 74.148,106.824 L79.062,106.824 L79.062,107.79 L76.122,107.79 C76.85,108.924 77.97,109.82 79.482,110.464 L79.048,111.346 C77.186,110.436 75.87,109.246 75.1,107.79 L73.756,107.79 C73.616,108.07 73.476,108.322 73.336,108.574 C72.622,109.652 71.558,110.618 70.158,111.472 L69.528,110.674 C70.858,109.946 71.852,109.064 72.524,108.056 C72.58,107.958 72.636,107.874 72.692,107.79 L69.976,107.79 L69.976,106.824 L73.14,106.824 C73.364,106.264 73.518,105.676 73.63,105.06 L70.62,105.06 L70.62,104.122 Z M71.474,111.514 L72.314,111.92 C71.796,113.348 71.194,114.594 70.508,115.644 L69.682,115.056 C70.368,114.062 70.97,112.886 71.474,111.514 Z M67.638,103.772 C68.506,104.374 69.248,104.976 69.836,105.592 L69.15,106.278 C68.618,105.704 67.876,105.088 66.938,104.444 L67.638,103.772 Z M67.302,107.118 C68.198,107.804 68.94,108.49 69.542,109.176 L68.856,109.862 C68.31,109.218 67.568,108.518 66.616,107.79 L67.302,107.118 Z M68.576,110.982 C68.03,112.662 67.386,114.314 66.658,115.91 L67.596,116.33 C68.268,114.762 68.898,113.096 69.458,111.332 L68.576,110.982 Z M73.308,116.414 L72.006,116.414 L71.796,115.462 C72.202,115.504 72.594,115.532 72.958,115.532 C73.238,115.532 73.392,115.336 73.392,114.972 L73.392,109.848 L74.358,109.848 L74.358,115.21 C74.358,116.008 74.008,116.414 73.308,116.414 Z M77.634,111.178 C78.292,112.424 78.866,113.754 79.342,115.168 L78.446,115.56 C77.928,114.02 77.368,112.648 76.752,111.472 L77.634,111.178 Z M75.786,111.682 C76.374,112.914 76.878,114.23 77.312,115.63 L76.416,116.036 C75.968,114.496 75.478,113.152 74.932,111.976 L75.786,111.682 Z M92.754,105.648 L92.754,116.19 L91.774,116.19 L91.774,115.252 L89.142,115.252 L89.142,116.19 L88.176,116.19 L88.176,105.648 L92.754,105.648 Z M89.142,114.286 L91.774,114.286 L91.774,106.614 L89.142,106.614 L89.142,114.286 Z M83.024,103.604 L83.024,106.432 L80.784,106.432 L80.784,107.412 L83.024,107.412 C82.982,111.248 82.142,114.048 80.518,115.798 L81.26,116.456 C83.052,114.552 83.976,111.542 84.032,107.412 L85.894,107.412 C85.866,111.164 85.81,113.418 85.726,114.146 C85.614,114.944 85.194,115.35 84.48,115.35 C84.144,115.35 83.752,115.322 83.304,115.294 L83.556,116.218 C84.06,116.246 84.41,116.274 84.62,116.274 C85.852,116.274 86.538,115.686 86.678,114.538 C86.818,113.502 86.888,110.8 86.888,106.432 L84.032,106.432 L84.032,103.604 L83.024,103.604 Z M96.184,104.374 L100.482,104.374 L100.482,103.492 L101.518,103.492 L101.518,104.374 L105.844,104.374 L105.844,107.09 L101.518,107.09 L101.518,108.028 L106.236,108.028 L106.236,110.996 L101.518,110.996 L101.518,111.808 L100.482,111.808 L100.482,110.996 L95.778,110.996 L95.778,108.028 L100.482,108.028 L100.482,107.09 L96.184,107.09 L96.184,104.374 Z M104.878,106.292 L104.878,105.186 L101.518,105.186 L101.518,106.292 L104.878,106.292 Z M100.482,106.292 L100.482,105.186 L97.15,105.186 L97.15,106.292 L100.482,106.292 Z M105.256,110.128 L105.256,108.868 L101.518,108.868 L101.518,110.128 L105.256,110.128 Z M100.482,110.128 L100.482,108.868 L96.758,108.868 L96.758,110.128 L100.482,110.128 Z M96.002,112.312 C95.75,113.376 95.33,114.328 94.742,115.196 L95.61,115.742 C96.198,114.846 96.66,113.768 96.996,112.522 L96.002,112.312 Z M102.946,116.218 L99.432,116.218 C98.508,116.218 98.046,115.742 98.046,114.79 L98.046,112.256 L99.082,112.256 L99.082,114.58 C99.082,115.028 99.292,115.266 99.74,115.266 L102.764,115.266 C103.072,115.266 103.282,115.196 103.422,115.07 C103.59,114.916 103.716,114.454 103.772,113.684 L104.724,113.992 C104.626,115.042 104.43,115.686 104.136,115.924 C103.884,116.12 103.492,116.218 102.946,116.218 Z M101.07,112.144 C101.714,112.816 102.204,113.404 102.54,113.908 L101.7,114.496 C101.336,113.95 100.846,113.334 100.216,112.662 L101.07,112.144 Z M105.284,112.116 C106.18,113.208 106.852,114.174 107.328,115.014 L106.488,115.588 C105.984,114.692 105.298,113.712 104.43,112.648 L105.284,112.116 Z M110.044,105.018 L113.88,105.018 L113.88,103.534 L114.916,103.534 L114.916,105.018 L118.22,105.018 L118.22,105.956 L114.916,105.956 L114.916,107.622 L116.68,107.622 C117.996,106.684 119.158,105.62 120.152,104.444 L120.922,105.004 C120.096,105.984 119.214,106.866 118.276,107.622 L121.272,107.622 L121.272,108.574 L117.002,108.574 C116.792,108.714 116.582,108.84 116.372,108.98 C115.728,109.372 114.986,109.75 114.174,110.128 L119.466,110.128 L119.466,116.428 L118.458,116.428 L118.458,115.798 L112.396,115.798 L112.396,116.428 L111.374,116.428 L111.374,111.276 C110.618,111.556 109.834,111.822 109.022,112.088 L108.602,111.15 C110.996,110.59 113.18,109.722 115.168,108.574 L108.798,108.574 L108.798,107.622 L113.88,107.622 L113.88,105.956 L110.044,105.956 L110.044,105.018 Z M112.396,113.376 L112.396,114.902 L118.458,114.902 L118.458,113.376 L112.396,113.376 Z M118.458,112.48 L118.458,111.01 L112.396,111.01 L112.396,112.48 L118.458,112.48 Z" id="添加患者-copy" fill="#333333"></path>
                <path d="M66.768,21.696 L66.768,29.584 L65.264,29.584 L65.264,21.872 C64.72,23.392 64.048,24.784 63.216,26.032 L62.544,24.304 C63.76,22.848 64.64,21.2 65.2,19.344 L62.88,19.344 L62.88,17.888 L65.264,17.888 L65.264,14.896 L66.768,14.896 L66.768,17.888 L68.752,17.888 L68.752,19.344 L66.768,19.344 L66.768,20.08 C67.552,20.8 68.336,21.616 69.12,22.512 L68.24,23.84 C67.68,22.976 67.184,22.256 66.768,21.696 Z M74.912,17.184 L71.088,17.184 C71.28,19.392 71.872,21.408 72.88,23.216 C73.888,21.456 74.56,19.44 74.912,17.184 Z M72,24.592 C70.672,22.368 69.888,19.904 69.632,17.184 L69.04,17.184 L69.04,15.728 L76.368,15.728 L76.368,17.168 C75.92,20.064 75.072,22.56 73.792,24.672 C74.784,26.048 76.016,27.296 77.52,28.416 L76.48,29.648 C75.072,28.512 73.872,27.28 72.912,25.968 C71.824,27.392 70.496,28.608 68.96,29.616 L67.984,28.384 C69.6,27.312 70.944,26.048 72,24.592 Z M79.184,15.424 L79.184,29.664 L80.672,29.664 L80.672,16.848 L82.864,16.848 C82.448,18.128 81.888,19.584 81.168,21.184 C82.256,22.528 82.8,23.728 82.8,24.816 C82.8,25.088 82.72,25.28 82.576,25.392 C82.416,25.488 82.128,25.552 81.68,25.584 C81.456,25.584 81.184,25.552 80.864,25.504 L81.36,27.04 C82.544,27.024 83.36,26.816 83.84,26.416 C84.16,26.096 84.32,25.552 84.32,24.816 C84.256,23.712 83.712,22.432 82.704,20.96 C83.344,19.44 83.904,18 84.384,16.624 L84.384,15.424 L79.184,15.424 Z M86.416,19.712 L86.416,21.168 L90.656,21.168 L90.656,19.712 L86.416,19.712 Z M90.656,18.336 L90.656,16.848 L86.416,16.848 L86.416,18.336 L90.656,18.336 Z M87.92,22.56 L86.416,22.56 L86.416,27.536 C87.28,27.28 88.128,26.96 88.96,26.576 L89.312,27.984 C88.144,28.464 86.672,28.944 84.896,29.408 L84.528,28.08 C84.784,27.984 84.928,27.84 84.928,27.632 L84.928,15.408 L92.144,15.408 L92.144,22.56 L89.28,22.56 C89.44,23.376 89.728,24.128 90.112,24.832 C90.816,24.416 91.488,23.824 92.128,23.056 L93.104,24.032 C92.432,24.832 91.664,25.456 90.816,25.904 C91.488,26.784 92.384,27.552 93.488,28.192 L92.64,29.536 C90.016,27.824 88.432,25.504 87.92,22.56 Z M102,21.872 C103.392,23.312 104.512,24.656 105.344,25.92 L106.512,24.752 C105.408,23.296 104.064,21.84 102.464,20.368 C102.576,19.888 102.672,19.36 102.768,18.8 L106.928,18.8 L106.928,27.312 C106.928,27.776 106.704,28.016 106.288,28.016 L103.872,27.936 L104.288,29.456 L106.8,29.456 C107.904,29.456 108.464,28.848 108.464,27.648 L108.464,17.328 L102.928,17.328 C102.992,16.544 103.024,15.712 103.024,14.832 L101.472,14.832 C101.472,15.712 101.424,16.544 101.36,17.328 L95.536,17.328 L95.536,29.632 L97.072,29.632 L97.072,18.8 L101.184,18.8 C101.088,19.408 100.96,19.968 100.816,20.48 C100.272,22.208 99.136,23.664 97.408,24.848 L98.432,26.08 C100.144,24.928 101.328,23.536 102,21.872 Z M118.4,14.8 C118.56,15.2 118.72,15.648 118.88,16.128 L124.72,16.128 L124.72,19.168 L123.248,19.168 L123.248,17.52 L112.752,17.52 L112.752,19.248 L111.28,19.248 L111.28,16.128 L117.28,16.128 C117.12,15.744 116.944,15.392 116.752,15.056 L118.4,14.8 Z M117.456,19.92 L118.576,19.92 C119.872,21.488 122.112,22.848 125.28,24.032 L124.464,25.264 C123.92,25.04 123.408,24.832 122.944,24.624 L122.944,29.664 L121.488,29.664 L121.488,29.088 L114.688,29.088 L114.688,29.664 L113.216,29.664 L113.216,24.56 C112.672,24.816 112.096,25.04 111.52,25.264 L110.704,24.032 C113.616,22.976 115.872,21.616 117.456,19.92 Z M114.688,27.712 L121.488,27.712 L121.488,25.488 L114.688,25.488 L114.688,27.712 Z M114.048,24.144 L121.936,24.144 C120.272,23.28 118.976,22.304 118.016,21.216 C116.88,22.368 115.552,23.344 114.048,24.144 Z M120,17.936 C121.92,18.928 123.552,19.92 124.864,20.896 L123.808,21.936 C122.672,20.992 121.072,19.968 119.024,18.88 L120,17.936 Z M115.968,17.936 L116.96,18.832 C115.6,20.032 113.936,21.088 111.952,21.984 L111.04,20.8 C112.992,19.984 114.624,19.024 115.968,17.936 Z" id="权限内容-copy" fill="#666666"></path>
                <path d="M68.184,147.374 L72.482,147.374 L72.482,146.492 L73.518,146.492 L73.518,147.374 L77.844,147.374 L77.844,150.09 L73.518,150.09 L73.518,151.028 L78.236,151.028 L78.236,153.996 L73.518,153.996 L73.518,154.808 L72.482,154.808 L72.482,153.996 L67.778,153.996 L67.778,151.028 L72.482,151.028 L72.482,150.09 L68.184,150.09 L68.184,147.374 Z M76.878,149.292 L76.878,148.186 L73.518,148.186 L73.518,149.292 L76.878,149.292 Z M72.482,149.292 L72.482,148.186 L69.15,148.186 L69.15,149.292 L72.482,149.292 Z M77.256,153.128 L77.256,151.868 L73.518,151.868 L73.518,153.128 L77.256,153.128 Z M72.482,153.128 L72.482,151.868 L68.758,151.868 L68.758,153.128 L72.482,153.128 Z M68.002,155.312 C67.75,156.376 67.33,157.328 66.742,158.196 L67.61,158.742 C68.198,157.846 68.66,156.768 68.996,155.522 L68.002,155.312 Z M74.946,159.218 L71.432,159.218 C70.508,159.218 70.046,158.742 70.046,157.79 L70.046,155.256 L71.082,155.256 L71.082,157.58 C71.082,158.028 71.292,158.266 71.74,158.266 L74.764,158.266 C75.072,158.266 75.282,158.196 75.422,158.07 C75.59,157.916 75.716,157.454 75.772,156.684 L76.724,156.992 C76.626,158.042 76.43,158.686 76.136,158.924 C75.884,159.12 75.492,159.218 74.946,159.218 Z M73.07,155.144 C73.714,155.816 74.204,156.404 74.54,156.908 L73.7,157.496 C73.336,156.95 72.846,156.334 72.216,155.662 L73.07,155.144 Z M77.284,155.116 C78.18,156.208 78.852,157.174 79.328,158.014 L78.488,158.588 C77.984,157.692 77.298,156.712 76.43,155.648 L77.284,155.116 Z M88.568,151.378 C88.288,151.966 87.994,152.484 87.658,152.96 L87.056,152.218 C87.952,150.818 88.554,148.928 88.862,146.548 L89.856,146.716 C89.744,147.43 89.604,148.088 89.464,148.704 L93.104,148.704 L93.104,149.67 L92.236,149.67 C92.152,151.91 91.69,153.842 90.85,155.438 C91.522,156.642 92.404,157.65 93.468,158.476 L92.964,159.358 C91.872,158.532 90.99,157.524 90.304,156.348 C89.492,157.552 88.428,158.56 87.14,159.358 L86.58,158.448 C87.938,157.664 89.002,156.628 89.786,155.368 C89.226,154.192 88.82,152.862 88.568,151.378 Z M91.298,149.67 L89.212,149.67 C89.198,149.698 89.184,149.726 89.184,149.754 C89.352,151.49 89.716,153.03 90.304,154.36 C90.906,153.002 91.242,151.434 91.298,149.67 Z M81.442,147.892 L83.276,147.892 L83.276,146.646 L84.242,146.646 L84.242,147.892 L85.74,147.892 L85.74,148.788 L84.242,148.788 L84.242,150.216 L85.054,150.216 C85.782,149.292 86.426,148.27 86.972,147.178 L87.756,147.584 C87.252,148.536 86.72,149.418 86.16,150.216 L87.196,150.216 L87.196,151.154 L85.446,151.154 C85.068,151.602 84.69,152.022 84.298,152.414 L86.678,152.414 L86.678,153.142 C86.202,153.702 85.642,154.262 84.998,154.822 L84.998,155.508 C85.922,155.368 86.762,155.186 87.49,154.99 L87.49,155.928 C86.804,156.11 85.978,156.278 84.998,156.418 L84.998,158.042 C84.998,158.854 84.592,159.26 83.78,159.26 L82.408,159.26 L82.156,158.35 C82.674,158.392 83.094,158.42 83.402,158.42 C83.808,158.42 84.018,158.196 84.018,157.776 L84.018,156.558 C83.094,156.67 82.058,156.782 80.938,156.88 L80.798,155.914 C81.974,155.858 83.038,155.76 84.018,155.648 L84.018,154.626 C84.522,154.248 85.012,153.814 85.488,153.31 L83.318,153.31 C82.618,153.884 81.904,154.388 81.148,154.808 L80.518,154.094 C80.966,153.842 81.386,153.576 81.778,153.31 L81.456,153.31 L81.456,152.414 L82.94,152.414 C83.416,152.008 83.85,151.588 84.256,151.154 L80.784,151.154 L80.784,150.216 L83.276,150.216 L83.276,148.788 L81.442,148.788 L81.442,147.892 Z M101.168,152.82 L101.168,154.71 L103.66,154.71 L103.66,152.82 L101.168,152.82 Z M101.168,155.648 L101.168,157.734 L103.66,157.734 L103.66,155.648 L101.168,155.648 Z M101.168,158.7 L101.168,159.344 L100.174,159.344 L100.174,151.14 C99.838,151.672 99.46,152.176 99.068,152.652 L98.732,151.588 C99.88,150.076 100.678,148.41 101.154,146.59 L102.134,146.786 C101.924,147.542 101.658,148.27 101.35,148.984 L103.884,148.984 C103.66,148.242 103.38,147.514 103.058,146.814 L104.024,146.548 C104.36,147.388 104.612,148.144 104.794,148.844 L104.416,148.984 L107.09,148.984 L107.09,149.964 L104.654,149.964 L104.654,151.868 L106.81,151.868 L106.81,152.82 L104.654,152.82 L104.654,154.71 L106.81,154.71 L106.81,155.648 L104.654,155.648 L104.654,157.734 L107.244,157.734 L107.244,158.7 L101.168,158.7 Z M103.66,149.964 L101.168,149.964 L101.168,151.868 L103.66,151.868 L103.66,149.964 Z M98.886,152.33 L98.886,153.352 C98.466,153.562 98.032,153.758 97.584,153.94 L97.584,157.986 C97.584,158.77 97.164,159.176 96.338,159.176 L95.05,159.176 L94.84,158.196 C95.232,158.238 95.624,158.266 95.988,158.266 C96.366,158.266 96.562,158.084 96.562,157.72 L96.562,154.346 C95.988,154.542 95.4,154.738 94.812,154.906 L94.56,153.898 C95.246,153.744 95.918,153.548 96.562,153.324 L96.562,150.104 L94.77,150.104 L94.77,149.124 L96.562,149.124 L96.562,146.534 L97.584,146.534 L97.584,149.124 L98.998,149.124 L98.998,150.104 L97.584,150.104 L97.584,152.932 C98.032,152.736 98.466,152.54 98.886,152.33 Z M109.764,146.786 L109.078,147.444 C110.1,148.242 110.898,148.984 111.472,149.67 L112.2,148.956 C111.542,148.228 110.73,147.514 109.764,146.786 Z M117.954,159.148 C117.184,159.148 116.344,159.134 115.448,159.12 C114.538,159.106 113.796,159.022 113.236,158.868 C112.676,158.7 112.172,158.35 111.738,157.846 C111.542,157.608 111.36,157.496 111.192,157.496 C110.856,157.496 110.296,158.126 109.526,159.414 L108.77,158.742 C109.512,157.566 110.17,156.852 110.744,156.6 L110.744,152.344 L108.756,152.344 L108.756,151.42 L111.682,151.42 L111.682,156.656 C111.794,156.74 111.906,156.838 112.032,156.978 C112.368,157.384 112.732,157.678 113.124,157.86 C113.572,158.056 114.202,158.168 115.042,158.196 C115.784,158.21 116.708,158.224 117.814,158.224 C118.458,158.224 119.13,158.21 119.816,158.196 C120.488,158.182 121.006,158.168 121.37,158.14 L121.132,159.148 L117.954,159.148 Z M112.984,152.078 L116.372,152.078 C116.456,151.476 116.512,150.79 116.54,150.006 L113.46,150.006 L113.46,149.082 L117.688,149.082 C118.122,148.27 118.5,147.402 118.808,146.478 L119.76,146.814 C119.452,147.668 119.102,148.424 118.71,149.082 L120.53,149.082 L120.53,150.006 L117.534,150.006 C117.506,150.79 117.464,151.49 117.38,152.078 L121.006,152.078 L121.006,153.03 L117.198,153.03 C116.806,154.724 115.574,156.124 113.502,157.23 L112.858,156.418 C114.622,155.55 115.728,154.43 116.148,153.03 L112.984,153.03 L112.984,152.078 Z M114.902,146.59 C115.364,147.206 115.798,147.892 116.218,148.634 L115.364,149.054 C114.944,148.298 114.482,147.612 113.992,147.024 L114.902,146.59 Z M117.842,153.856 C119.004,154.668 120.054,155.55 120.992,156.502 L120.292,157.258 C119.312,156.222 118.304,155.312 117.24,154.528 L117.842,153.856 Z" id="患教推送-copy" fill="#333333"></path>
                <path d="M75.674,192.992 L76.416,193.552 C75.38,194.924 73.854,195.918 71.838,196.52 L71.446,195.652 C73.322,195.106 74.722,194.224 75.674,192.992 Z M77.186,194.854 L77.928,195.428 C76.668,197.108 74.806,198.312 72.342,199.04 L71.936,198.144 C74.26,197.472 76.01,196.366 77.186,194.854 Z M78.656,196.604 L79.454,197.206 C77.704,199.642 75.114,201.392 71.684,202.456 L71.25,201.49 C74.54,200.496 77.004,198.872 78.656,196.604 Z M68.296,189.73 C69.22,190.43 70.018,191.144 70.662,191.858 L69.976,192.558 C69.388,191.886 68.604,191.172 67.596,190.416 L68.296,189.73 Z M66.588,193.846 L69.612,193.846 L69.612,200.034 C70.06,199.642 70.536,199.18 71.054,198.662 L71.334,199.726 C70.522,200.538 69.654,201.252 68.73,201.896 L68.338,200.986 C68.534,200.79 68.646,200.58 68.646,200.342 L68.646,194.812 L66.588,194.812 L66.588,193.846 Z M74.736,189.548 L75.464,189.548 C76.668,191.368 78.054,192.796 79.622,193.832 L79.132,194.7 C77.564,193.636 76.22,192.264 75.1,190.57 C74.064,192.194 72.692,193.608 70.998,194.784 L70.508,193.916 C72.202,192.74 73.616,191.284 74.736,189.548 Z M85.04,193.118 L92.404,193.118 L92.404,194.07 C91.536,194.896 90.542,195.68 89.422,196.436 L89.422,201.042 C89.422,201.938 88.96,202.386 88.05,202.386 L86.356,202.386 L86.118,201.49 C86.594,201.504 87.098,201.518 87.658,201.518 C88.162,201.518 88.428,201.252 88.428,200.734 L88.428,195.932 C89.338,195.414 90.206,194.798 91.046,194.07 L85.04,194.07 L85.04,193.118 Z M82.926,195.694 C82.926,195.526 82.94,195.372 82.94,195.232 L82.94,190.696 L87.7,190.696 C87.546,190.29 87.378,189.912 87.196,189.576 L88.232,189.394 C88.386,189.786 88.54,190.22 88.68,190.696 L93.006,190.696 L93.006,191.69 L83.948,191.69 L83.948,195.232 C83.892,198.186 83.262,200.552 82.086,202.33 L81.33,201.658 C82.142,200.426 82.646,198.816 82.842,196.828 C82.226,197.36 81.526,197.864 80.77,198.34 L80.476,197.36 C81.372,196.87 82.184,196.31 82.926,195.694 Z M81.456,191.942 C81.932,192.782 82.338,193.664 82.674,194.588 L81.862,194.938 C81.484,193.916 81.078,193.02 80.63,192.264 L81.456,191.942 Z M100.244,190.402 L100.244,198.928 C100.566,198.83 100.874,198.732 101.182,198.634 L101.182,199.586 C99.362,200.174 97.248,200.72 94.84,201.224 L94.56,200.244 C94.896,200.174 95.232,200.104 95.568,200.048 L95.568,190.402 L100.244,190.402 Z M96.562,199.838 C97.514,199.628 98.41,199.418 99.264,199.194 L99.264,197.262 L96.562,197.262 L96.562,199.838 Z M96.562,196.352 L99.264,196.352 L99.264,194.238 L96.562,194.238 L96.562,196.352 Z M96.562,193.314 L99.264,193.314 L99.264,191.326 L96.562,191.326 L96.562,193.314 Z M102.792,189.632 L103.8,189.632 L103.8,192.432 L106.894,192.432 C106.894,196.8 106.824,199.488 106.684,200.524 C106.544,201.672 105.844,202.26 104.584,202.26 C104.36,202.26 103.968,202.246 103.408,202.218 L103.17,201.322 C103.66,201.35 104.08,201.378 104.444,201.378 C105.186,201.378 105.62,200.958 105.732,200.146 C105.816,199.418 105.872,197.164 105.9,193.412 L103.8,193.412 L103.8,193.608 C103.758,197.64 102.764,200.594 100.818,202.456 L100.062,201.798 C101.854,200.104 102.764,197.374 102.792,193.608 L102.792,193.412 L101.056,193.412 L101.056,192.432 L102.792,192.432 L102.792,189.632 Z M119.704,189.688 C117.03,190.332 113.67,190.668 109.61,190.668 L109.918,191.578 C111.654,191.578 113.264,191.508 114.748,191.396 L114.748,193.678 L109.89,193.678 L109.89,194.658 L114.748,194.658 L114.748,196.954 L108.728,196.954 L108.728,197.92 L114.748,197.92 L114.748,200.762 C114.748,201.154 114.524,201.364 114.104,201.364 C113.46,201.364 112.774,201.336 112.06,201.308 L112.284,202.288 L114.454,202.288 C115.322,202.288 115.77,201.854 115.77,201.014 L115.77,197.92 L121.286,197.92 L121.286,196.954 L115.77,196.954 L115.77,194.658 L120.236,194.658 L120.236,193.678 L115.77,193.678 L115.77,191.312 C117.45,191.144 118.92,190.878 120.194,190.542 L119.704,189.688 Z" id="诊疗助手-copy" fill="#333333"></path>
                <path d="M78.908,234.404 L78.908,237.54 L77.914,237.54 L77.914,235.37 L68.072,235.37 L68.072,237.54 L67.092,237.54 L67.092,234.404 L75.114,234.404 C75.73,233.508 76.262,232.528 76.71,231.478 L77.732,231.856 C77.242,232.864 76.738,233.704 76.206,234.404 L78.908,234.404 Z M69.234,236.56 L76.78,236.56 L76.78,237.456 C75.856,238.044 74.834,238.618 73.686,239.178 L73.686,239.892 L79.02,239.892 L79.02,240.844 L73.686,240.844 L73.686,243.21 C73.686,243.966 73.28,244.344 72.496,244.344 L70.718,244.344 L70.48,243.42 C70.984,243.434 71.544,243.448 72.146,243.448 C72.482,243.448 72.664,243.252 72.664,242.86 L72.664,240.844 L66.994,240.844 L66.994,239.892 L72.664,239.892 L72.664,238.73 C73.84,238.212 74.722,237.792 75.338,237.456 L69.234,237.456 L69.234,236.56 Z M69.08,231.688 C69.584,232.36 70.074,233.088 70.522,233.886 L69.654,234.32 C69.178,233.508 68.688,232.78 68.17,232.136 L69.08,231.688 Z M72.468,231.422 C72.93,232.122 73.378,232.892 73.798,233.732 L72.902,234.18 C72.482,233.312 72.034,232.542 71.558,231.87 L72.468,231.422 Z M88.974,238.128 L89.226,239.038 C87.252,240.27 84.802,241.376 81.862,242.328 L81.456,241.404 C84.368,240.508 86.874,239.416 88.974,238.128 Z M83.402,234.782 C84.564,235.65 85.544,236.532 86.342,237.414 L85.656,238.114 C84.928,237.274 83.948,236.392 82.702,235.454 L83.402,234.782 Z M87.518,244.316 L87.238,243.35 C88.008,243.364 88.778,243.378 89.548,243.378 C89.968,243.378 90.29,243.182 90.5,242.804 C90.71,242.412 90.836,241.474 90.878,240.004 C90.906,239.024 90.92,236.826 90.948,233.396 L81.806,233.396 L81.806,232.43 L91.97,232.43 C91.9,237.05 91.844,239.794 91.788,240.69 C91.732,242.076 91.564,243.014 91.284,243.518 C91.018,244.022 90.514,244.274 89.758,244.274 C89.156,244.274 88.414,244.288 87.518,244.316 Z M99.572,232.108 L106.474,232.108 L106.474,237.456 L103.478,237.456 L103.478,238.758 L107.174,238.758 L107.174,239.696 L104.402,239.696 C105.032,240.928 106.068,242.02 107.524,243 L106.88,243.798 C105.326,242.566 104.234,241.194 103.604,239.696 L103.478,239.696 L103.478,244.358 L102.54,244.358 L102.54,239.696 L102.414,239.696 C101.728,241.376 100.594,242.748 99.012,243.826 L98.494,242.972 C99.922,242.104 100.972,241.012 101.63,239.696 L98.872,239.696 L98.872,238.758 L102.54,238.758 L102.54,237.456 L99.572,237.456 L99.572,232.108 Z M105.55,236.602 L105.55,235.216 L103.478,235.216 L103.478,236.602 L105.55,236.602 Z M102.54,236.602 L102.54,235.216 L100.496,235.216 L100.496,236.602 L102.54,236.602 Z M100.496,234.39 L102.54,234.39 L102.54,232.99 L100.496,232.99 L100.496,234.39 Z M103.478,232.99 L103.478,234.39 L105.55,234.39 L105.55,232.99 L103.478,232.99 Z M96.282,231.716 C97.206,232.416 97.976,233.13 98.606,233.83 L97.92,234.516 C97.346,233.844 96.562,233.144 95.568,232.402 L96.282,231.716 Z M94.588,235.846 L97.514,235.846 L97.514,241.838 C97.92,241.474 98.34,241.068 98.788,240.62 L99.054,241.656 C98.298,242.412 97.486,243.098 96.632,243.714 L96.24,242.818 C96.436,242.65 96.534,242.454 96.534,242.23 L96.534,236.812 L94.588,236.812 L94.588,235.846 Z M114.594,232.08 L120.404,232.08 L120.404,236.126 L114.594,236.126 L114.594,232.08 Z M119.424,235.216 L119.424,232.976 L115.588,232.976 L115.588,235.216 L119.424,235.216 Z M114.048,237.428 L121.006,237.428 L121.006,238.352 L117.954,238.352 L117.954,240.144 L120.572,240.144 L120.572,241.054 L117.954,241.054 L117.954,242.944 L121.342,242.944 L121.342,243.896 L113.488,243.896 L113.488,242.944 L116.918,242.944 L116.918,241.054 L114.37,241.054 L114.37,240.144 L116.918,240.144 L116.918,238.352 L114.048,238.352 L114.048,237.428 Z M108.812,235.398 L110.856,235.398 L110.856,233.368 C110.268,233.452 109.652,233.536 109.022,233.606 L108.826,232.654 C110.576,232.486 112.13,232.192 113.474,231.772 L113.824,232.724 C113.194,232.906 112.522,233.06 111.822,233.2 L111.822,235.398 L113.628,235.398 L113.628,236.364 L111.822,236.364 L111.822,237.106 C112.48,237.75 113.152,238.478 113.824,239.276 L113.264,240.116 C112.704,239.248 112.214,238.548 111.822,238.03 L111.822,244.344 L110.856,244.344 L110.856,238.03 C110.366,239.402 109.722,240.634 108.924,241.74 L108.49,240.62 C109.554,239.374 110.31,237.96 110.758,236.364 L108.812,236.364 L108.812,235.398 Z" id="学习课程-copy" fill="#333333"></path>
                <polygon id="Shape-Copy-37" fill="#44C358" points="661.454545 284.431818 658.113636 281.090909 657 282.204545 661.454545 286.659091 671 277.113636 669.886364 276"></polygon>
                <polygon id="Shape-Copy-44" fill="#FF7777" points="292 275.4 290.6 274 285 279.6 279.4 274 278 275.4 283.6 281 278 286.6 279.4 288 285 282.4 290.6 288 292 286.6 286.4 281"></polygon>
                <polygon id="Shape-Copy-45" fill="#FF7777" points="484 275.4 482.6 274 477 279.6 471.4 274 470 275.4 475.6 281 470 286.6 471.4 288 477 282.4 482.6 288 484 286.6 478.4 281"></polygon>
                <path d="M53.28,278.27 L57.998,278.27 C58.264,277.906 58.474,277.528 58.628,277.136 C57.382,277.192 56.094,277.234 54.764,277.276 L54.61,276.394 C55.52,276.17 56.668,275.372 58.054,274 L59.034,274.336 C58.222,275.176 57.41,275.848 56.612,276.366 C58.488,276.31 60.252,276.212 61.932,276.1 C61.526,275.736 61.092,275.372 60.63,274.994 L61.4,274.504 C62.786,275.582 63.85,276.52 64.578,277.318 L63.738,277.906 C63.458,277.57 63.136,277.248 62.786,276.912 C61.778,276.968 60.728,277.038 59.65,277.094 C59.496,277.5 59.3,277.892 59.076,278.27 L65.46,278.27 L65.46,279.194 L61.974,279.194 C62.814,280.034 64.102,280.706 65.838,281.196 L65.404,282.12 C63.304,281.364 61.806,280.398 60.91,279.194 L58.376,279.194 C57.284,280.412 55.646,281.406 53.462,282.19 L53,281.294 C54.764,280.776 56.15,280.076 57.144,279.194 L53.28,279.194 L53.28,278.27 Z M59.454,279.684 L60.238,280.16 C59.3,281.336 57.844,282.26 55.87,282.946 L55.436,282.162 C57.256,281.546 58.6,280.72 59.454,279.684 Z M63.066,281.854 L63.962,282.246 C62.674,284.542 59.874,286.152 55.576,287.062 L55.002,286.278 C59.23,285.382 61.918,283.898 63.066,281.854 Z M61.232,280.846 L62.016,281.378 C60.378,283.24 58.306,284.388 55.786,284.836 L55.212,284.066 C57.802,283.646 59.804,282.568 61.232,280.846 Z M79.446,276.156 L79.446,286.698 L78.466,286.698 L78.466,285.76 L75.834,285.76 L75.834,286.698 L74.868,286.698 L74.868,276.156 L79.446,276.156 Z M75.834,284.794 L78.466,284.794 L78.466,277.122 L75.834,277.122 L75.834,284.794 Z M69.716,274.112 L69.716,276.94 L67.476,276.94 L67.476,277.92 L69.716,277.92 C69.674,281.756 68.834,284.556 67.21,286.306 L67.952,286.964 C69.744,285.06 70.668,282.05 70.724,277.92 L72.586,277.92 C72.558,281.672 72.502,283.926 72.418,284.654 C72.306,285.452 71.886,285.858 71.172,285.858 C70.836,285.858 70.444,285.83 69.996,285.802 L70.248,286.726 C70.752,286.754 71.102,286.782 71.312,286.782 C72.544,286.782 73.23,286.194 73.37,285.046 C73.51,284.01 73.58,281.308 73.58,276.94 L70.724,276.94 L70.724,274.112 L69.716,274.112 Z M86.544,274.616 L93.446,274.616 L93.446,279.964 L90.45,279.964 L90.45,281.266 L94.146,281.266 L94.146,282.204 L91.374,282.204 C92.004,283.436 93.04,284.528 94.496,285.508 L93.852,286.306 C92.298,285.074 91.206,283.702 90.576,282.204 L90.45,282.204 L90.45,286.866 L89.512,286.866 L89.512,282.204 L89.386,282.204 C88.7,283.884 87.566,285.256 85.984,286.334 L85.466,285.48 C86.894,284.612 87.944,283.52 88.602,282.204 L85.844,282.204 L85.844,281.266 L89.512,281.266 L89.512,279.964 L86.544,279.964 L86.544,274.616 Z M92.522,279.11 L92.522,277.724 L90.45,277.724 L90.45,279.11 L92.522,279.11 Z M89.512,279.11 L89.512,277.724 L87.468,277.724 L87.468,279.11 L89.512,279.11 Z M87.468,276.898 L89.512,276.898 L89.512,275.498 L87.468,275.498 L87.468,276.898 Z M90.45,275.498 L90.45,276.898 L92.522,276.898 L92.522,275.498 L90.45,275.498 Z M83.254,274.224 C84.178,274.924 84.948,275.638 85.578,276.338 L84.892,277.024 C84.318,276.352 83.534,275.652 82.54,274.91 L83.254,274.224 Z M81.56,278.354 L84.486,278.354 L84.486,284.346 C84.892,283.982 85.312,283.576 85.76,283.128 L86.026,284.164 C85.27,284.92 84.458,285.606 83.604,286.222 L83.212,285.326 C83.408,285.158 83.506,284.962 83.506,284.738 L83.506,279.32 L81.56,279.32 L81.56,278.354 Z M101.846,274.588 L107.656,274.588 L107.656,278.634 L101.846,278.634 L101.846,274.588 Z M106.676,277.724 L106.676,275.484 L102.84,275.484 L102.84,277.724 L106.676,277.724 Z M101.3,279.936 L108.258,279.936 L108.258,280.86 L105.206,280.86 L105.206,282.652 L107.824,282.652 L107.824,283.562 L105.206,283.562 L105.206,285.452 L108.594,285.452 L108.594,286.404 L100.74,286.404 L100.74,285.452 L104.17,285.452 L104.17,283.562 L101.622,283.562 L101.622,282.652 L104.17,282.652 L104.17,280.86 L101.3,280.86 L101.3,279.936 Z M96.064,277.906 L98.108,277.906 L98.108,275.876 C97.52,275.96 96.904,276.044 96.274,276.114 L96.078,275.162 C97.828,274.994 99.382,274.7 100.726,274.28 L101.076,275.232 C100.446,275.414 99.774,275.568 99.074,275.708 L99.074,277.906 L100.88,277.906 L100.88,278.872 L99.074,278.872 L99.074,279.614 C99.732,280.258 100.404,280.986 101.076,281.784 L100.516,282.624 C99.956,281.756 99.466,281.056 99.074,280.538 L99.074,286.852 L98.108,286.852 L98.108,280.538 C97.618,281.91 96.974,283.142 96.176,284.248 L95.742,283.128 C96.806,281.882 97.562,280.468 98.01,278.872 L96.064,278.872 L96.064,277.906 Z M111.688,275.484 L115.426,275.484 L115.426,274.042 L116.434,274.042 L116.434,275.484 L119.598,275.484 L119.598,276.268 C120.186,275.666 120.732,275.036 121.208,274.392 L121.95,274.952 C121.138,276.044 120.228,277.038 119.22,277.934 L122.65,277.934 L122.65,278.9 L118.016,278.9 C117.316,279.404 116.588,279.88 115.832,280.314 L121.824,280.314 L121.824,281.224 L114.88,281.224 L114.418,282.666 L121.124,282.666 C121.026,284.598 120.816,285.76 120.494,286.138 C120.172,286.502 119.542,286.684 118.59,286.684 C117.932,286.684 117.344,286.656 116.84,286.6 L116.518,285.718 C117.218,285.76 117.834,285.788 118.38,285.788 C119.108,285.788 119.556,285.662 119.752,285.424 C119.92,285.172 120.032,284.542 120.116,283.548 L113.228,283.548 L113.858,281.308 C112.78,281.784 111.66,282.204 110.484,282.568 L110.078,281.658 C112.444,280.944 114.516,280.02 116.308,278.9 L110.68,278.9 L110.68,277.934 L115.426,277.934 L115.426,276.422 L111.688,276.422 L111.688,275.484 Z M117.694,277.934 C118.324,277.458 118.912,276.954 119.444,276.422 L116.434,276.422 L116.434,277.934 L117.694,277.934 Z M130.392,280.706 L129.076,280.706 L129.076,279.768 L132.702,279.768 L132.702,280.706 L131.386,280.706 L131.386,284.5 C132.002,284.36 132.618,284.206 133.206,284.038 L133.206,284.976 C131.988,285.326 130.672,285.62 129.272,285.858 L129.02,284.906 C129.482,284.85 129.944,284.78 130.392,284.696 L130.392,280.706 Z M135.698,286.698 C135.222,286.698 134.788,286.334 134.424,285.606 C134.004,284.766 133.696,283.632 133.5,282.176 C133.346,280.944 133.248,279.404 133.192,277.57 L128.754,277.57 L128.754,276.59 L133.164,276.59 C133.136,275.778 133.136,274.924 133.136,274.028 L134.116,274.028 C134.116,274.938 134.116,275.792 134.144,276.59 L136.93,276.59 L136.93,277.57 L134.158,277.57 C134.228,279.978 134.382,281.826 134.606,283.142 C134.914,284.738 135.278,285.55 135.698,285.606 C135.978,285.55 136.272,284.696 136.552,283.03 L137.35,283.674 C136.888,285.69 136.342,286.698 135.698,286.698 Z M135.32,274.014 C135.922,274.686 136.384,275.274 136.72,275.778 L136.02,276.268 C135.67,275.722 135.194,275.12 134.606,274.448 L135.32,274.014 Z M126.08,274.21 L125.38,274.896 C126.332,275.652 127.088,276.38 127.648,277.066 L128.334,276.366 C127.718,275.638 126.976,274.924 126.08,274.21 Z M124.4,278.354 L127.34,278.354 L127.34,284.458 C127.76,284.052 128.18,283.604 128.628,283.114 L128.894,284.178 C128.124,285.018 127.312,285.76 126.444,286.404 L126.052,285.508 C126.248,285.34 126.36,285.144 126.36,284.934 L126.36,279.32 L124.4,279.32 L124.4,278.354 Z" id="参加课程考试" fill="#333333"></path>
                <path d="M438.968,15.04 L437.96,16.016 C438.984,16.944 439.8,17.824 440.376,18.624 L441.416,17.584 C440.76,16.736 439.944,15.888 438.968,15.04 Z M448.344,29.376 C447.432,29.376 446.44,29.36 445.368,29.344 C444.28,29.328 443.4,29.232 442.696,29.072 C442.024,28.88 441.448,28.496 440.968,27.952 C440.744,27.68 440.52,27.552 440.328,27.552 C440.04,27.552 439.544,28.272 438.808,29.712 L437.736,28.704 C438.44,27.456 439.08,26.64 439.64,26.288 L439.64,21.696 L437.816,21.696 L437.816,20.304 L441.08,20.304 L441.08,26.352 C441.176,26.416 441.256,26.496 441.336,26.592 C441.736,27.024 442.136,27.344 442.552,27.552 C443.048,27.776 443.784,27.92 444.76,27.952 C445.704,27.968 446.824,27.984 448.136,27.984 C448.904,27.984 449.704,27.968 450.52,27.952 C451.32,27.936 451.944,27.904 452.376,27.872 L452.008,29.376 L448.344,29.376 Z M442.456,15.952 L443.912,15.952 C444.008,15.568 444.088,15.168 444.152,14.768 L445.656,14.96 C445.576,15.312 445.48,15.648 445.352,15.952 L447.128,15.952 L447.128,19.568 C447.784,18.304 448.232,16.72 448.488,14.8 L449.88,15.056 C449.752,15.792 449.608,16.48 449.432,17.12 L452.28,17.12 L452.28,18.544 L451.608,18.544 C451.544,20.272 451.288,21.792 450.872,23.136 C451.368,24 451.864,24.976 452.36,26.064 L451.368,27.056 C451.016,26.192 450.648,25.376 450.264,24.624 C449.688,25.744 448.952,26.688 448.056,27.44 L447.288,26.224 C448.232,25.472 448.952,24.448 449.448,23.152 C449,22.416 448.52,21.728 448.024,21.104 L448.776,20.224 C449.16,20.64 449.544,21.104 449.912,21.632 C450.104,20.688 450.232,19.664 450.28,18.544 L448.968,18.544 C448.584,19.504 448.12,20.336 447.576,21.024 L447.128,20.464 L447.128,20.544 L445.256,20.544 L445.544,21.296 L447.656,21.296 L447.656,22.56 L444.616,22.56 C444.584,22.816 444.552,23.04 444.52,23.264 L447.224,23.264 C447.224,25.152 447.096,26.288 446.856,26.704 C446.6,27.12 446.168,27.328 445.544,27.344 L444.648,27.344 L444.28,26.112 L445.208,26.112 C445.48,26.096 445.656,25.984 445.752,25.792 C445.816,25.6 445.848,25.152 445.864,24.448 L444.248,24.448 C444.184,24.672 444.104,24.88 444.04,25.072 C443.72,25.824 443.24,26.496 442.616,27.088 L441.768,25.984 C442.248,25.52 442.6,25.008 442.84,24.432 C443.032,23.952 443.192,23.328 443.304,22.56 L441.96,22.56 L441.96,21.296 L444.12,21.296 L443.816,20.544 L442.456,20.544 L442.456,15.952 Z M445.864,19.536 L445.864,18.752 L443.72,18.752 L443.72,19.536 L445.864,19.536 Z M443.72,17.728 L445.864,17.728 L445.864,16.96 L443.72,16.96 L443.72,17.728 Z M462.648,14.88 L464.104,14.88 L464.104,15.808 L467.944,15.808 L467.944,17.04 L464.104,17.04 L464.104,17.824 L467.384,17.824 L467.384,19.024 L464.104,19.024 L464.104,19.824 L468.344,19.824 L468.344,21.088 L458.456,21.088 L458.456,19.824 L462.648,19.824 L462.648,19.024 L459.576,19.024 L459.576,17.824 L462.648,17.824 L462.648,17.04 L458.904,17.04 L458.904,15.808 L462.648,15.808 L462.648,14.88 Z M461.032,25.12 L461.032,26.016 L465.784,26.016 L465.784,25.12 L461.032,25.12 Z M465.784,23.968 L465.784,23.056 L461.032,23.056 L461.032,23.968 L465.784,23.968 Z M461.032,27.168 L461.032,29.648 L459.592,29.648 L459.592,21.824 L467.24,21.824 L467.24,28.064 C467.24,29.056 466.728,29.552 465.72,29.552 L464.392,29.552 L464.04,28.208 L465.288,28.288 C465.608,28.288 465.784,28.112 465.784,27.76 L465.784,27.168 L461.032,27.168 Z M455.784,15.008 L454.712,16.048 C455.848,16.88 456.728,17.68 457.352,18.416 L458.392,17.36 C457.688,16.576 456.808,15.792 455.784,15.008 Z M453.608,19.648 L457.24,19.648 L457.24,26.336 C457.656,25.936 458.072,25.504 458.52,25.04 L458.92,26.64 C457.992,27.6 457,28.448 455.96,29.184 L455.384,27.808 C455.64,27.584 455.784,27.296 455.784,26.96 L455.784,21.104 L453.608,21.104 L453.608,19.648 Z M475.224,20.384 L475.224,28.816 L473.816,28.816 L473.816,28.032 L472.44,28.032 L472.44,29.12 L471.032,29.12 L471.032,23.088 C470.776,23.504 470.52,23.904 470.248,24.288 L469.496,23.072 C470.6,21.312 471.336,19.328 471.72,17.12 L469.96,17.12 L469.96,15.648 L475.512,15.648 L475.512,17.12 L473.16,17.12 C472.952,18.288 472.664,19.376 472.296,20.384 L475.224,20.384 Z M472.44,26.64 L473.816,26.64 L473.816,21.76 L472.44,21.76 L472.44,26.64 Z M477.032,17.808 L478.52,17.904 L477.848,21.744 L480.904,21.744 L481.624,16.864 L476.152,16.864 L476.152,15.424 L483.288,15.424 L482.44,21.744 L484.072,21.744 C484.072,25.744 483.832,28.048 483.384,28.656 C482.92,29.264 481.944,29.568 480.472,29.568 C480.024,29.568 479.544,29.536 479.064,29.504 L478.648,28.032 C479.352,28.112 479.832,28.16 480.104,28.16 C481.304,28.16 482.024,27.92 482.248,27.44 C482.504,26.944 482.632,25.52 482.632,23.168 L476.168,23.168 L477.032,17.808 Z M475.8,24.848 L481.752,24.848 L481.752,26.288 L475.8,26.288 L475.8,24.848 Z M488.616,20.688 L488.616,23.136 L492.296,23.136 L492.296,20.688 L488.616,20.688 Z M488.536,24.544 C488.344,26.56 487.752,28.224 486.76,29.536 L485.592,28.496 C486.552,27.12 487.048,25.376 487.08,23.264 L487.08,15.424 L499.352,15.424 L499.352,27.472 C499.352,28.672 498.728,29.28 497.512,29.28 L495.672,29.28 L495.272,27.792 C495.896,27.84 496.472,27.872 497.016,27.872 C497.528,27.872 497.8,27.552 497.8,26.928 L497.8,24.544 L493.832,24.544 L493.832,29.104 L492.296,29.104 L492.296,24.544 L488.536,24.544 Z M497.8,23.136 L497.8,20.688 L493.832,20.688 L493.832,23.136 L497.8,23.136 Z M497.8,19.296 L497.8,16.896 L493.832,16.896 L493.832,19.296 L497.8,19.296 Z M492.296,16.896 L488.616,16.896 L488.616,19.296 L492.296,19.296 L492.296,16.896 Z M513.544,18.208 L504.824,18.208 L504.824,20.928 L513.544,20.928 L513.544,18.208 Z M504.808,22.416 C504.712,25.232 503.976,27.68 502.584,29.728 L501.464,28.704 C502.68,26.96 503.304,24.704 503.32,21.952 L503.32,16.72 L508.456,16.72 C508.2,16.112 507.912,15.536 507.592,15.008 L509.224,14.752 C509.496,15.344 509.752,16 510.008,16.72 L515.08,16.72 L515.08,22.416 L504.808,22.416 Z" id="邀请码用户-copy" fill="#666666"></path>
                <path d="M641.856,14.992 L643.392,14.992 C643.392,16.368 643.344,17.664 643.248,18.848 C644.08,22.784 645.52,25.92 647.568,28.256 L646.48,29.536 C644.896,27.488 643.68,25.024 642.816,22.144 L642.688,22.768 C642.112,25.52 640.752,27.776 638.608,29.568 L637.584,28.32 C639.408,26.752 640.592,24.816 641.168,22.512 C641.616,20.576 641.84,18.064 641.856,14.992 Z M634.768,15.008 L633.712,16.048 C634.848,16.88 635.728,17.68 636.368,18.432 L637.408,17.376 C636.688,16.576 635.808,15.792 634.768,15.008 Z M632.656,19.648 L636.352,19.648 L636.352,26.336 C636.848,25.92 637.376,25.44 637.952,24.896 L638.336,26.464 C637.312,27.408 636.224,28.256 635.056,29.024 L634.48,27.664 C634.752,27.44 634.896,27.168 634.896,26.832 L634.896,21.104 L632.656,21.104 L632.656,19.648 Z M658.448,16.992 L654.08,16.992 L654.08,15.504 L663.152,15.504 L663.152,16.992 L660,16.992 L660,21.104 L662.928,21.104 L662.928,22.528 L660,22.528 L660,27.616 L663.472,27.616 L663.472,29.104 L653.584,29.104 L653.584,27.616 L655.088,27.616 L655.088,19.408 L656.576,19.408 L656.576,27.616 L658.448,27.616 L658.448,16.992 Z M650.832,15.008 L649.776,16.016 C650.864,16.864 651.728,17.664 652.352,18.432 L653.392,17.376 C652.688,16.592 651.824,15.808 650.832,15.008 Z M648.64,19.648 L652.304,19.648 L652.304,26.224 C652.736,25.84 653.2,25.392 653.696,24.912 L654.096,26.528 C653.136,27.456 652.112,28.288 651.024,29.024 L650.448,27.648 C650.704,27.424 650.848,27.152 650.848,26.832 L650.848,21.104 L648.64,21.104 L648.64,19.648 Z M667.616,20.688 L667.616,23.136 L671.296,23.136 L671.296,20.688 L667.616,20.688 Z M667.536,24.544 C667.344,26.56 666.752,28.224 665.76,29.536 L664.592,28.496 C665.552,27.12 666.048,25.376 666.08,23.264 L666.08,15.424 L678.352,15.424 L678.352,27.472 C678.352,28.672 677.728,29.28 676.512,29.28 L674.672,29.28 L674.272,27.792 C674.896,27.84 675.472,27.872 676.016,27.872 C676.528,27.872 676.8,27.552 676.8,26.928 L676.8,24.544 L672.832,24.544 L672.832,29.104 L671.296,29.104 L671.296,24.544 L667.536,24.544 Z M676.8,23.136 L676.8,20.688 L672.832,20.688 L672.832,23.136 L676.8,23.136 Z M676.8,19.296 L676.8,16.896 L672.832,16.896 L672.832,19.296 L676.8,19.296 Z M671.296,16.896 L667.616,16.896 L667.616,19.296 L671.296,19.296 L671.296,16.896 Z M692.544,18.208 L683.824,18.208 L683.824,20.928 L692.544,20.928 L692.544,18.208 Z M683.808,22.416 C683.712,25.232 682.976,27.68 681.584,29.728 L680.464,28.704 C681.68,26.96 682.304,24.704 682.32,21.952 L682.32,16.72 L687.456,16.72 C687.2,16.112 686.912,15.536 686.592,15.008 L688.224,14.752 C688.496,15.344 688.752,16 689.008,16.72 L694.08,16.72 L694.08,22.416 L683.808,22.416 Z" id="认证用户-copy" fill="#666666"></path>
                <rect id="Rectangle-8" fill-opacity="0" fill="#D8D8D8" x="231" y="14" width="16" height="16"></rect>
                <ellipse id="Oval-2" fill="#000000" opacity="0.200000003" cx="238.647059" cy="29.0588235" rx="5.64705882" ry="1"></ellipse>
                <g id="Group-2" transform="translate(233.000000, 14.000000)" fill-rule="nonzero" fill="#F5A623">
                    <path d="M11.1772571,6.20805956 C10.981359,11.1463823 5.67917396,14.3743316 5.67917396,14.3743316 C5.67917396,14.3743316 1.1533513,11.6392641 0.280742265,7.35176157 C0.100709057,6.80198368 0,6.21634693 0,5.60587702 C0,2.51001872 2.51020707,0 5.6063986,0 C8.70259014,0 11.212435,2.51001873 11.212435,5.60586254 C11.212435,5.81004795 11.1982943,6.01008968 11.1772571,6.20805956 Z M5.60638411,2.0354213 C3.87565446,2.0354213 2.47224738,3.43849516 2.47224738,5.1692103 C2.47224738,6.89993994 3.87565446,8.30299929 5.60638411,8.30299929 C7.33711375,8.30299929 8.7401731,6.89993994 8.7401731,5.1692103 C8.7401731,3.43849514 7.33711375,2.0354213 5.60638411,2.0354213 Z M7.07981375,7.21380275 L5.64396708,6.54055449 L4.2081349,7.21380275 L4.40472838,5.640345 L3.3207042,4.48285001 L4.87828264,4.18347562 L5.64396708,2.79489021 L6.40966601,4.18347562 L7.96724445,4.48285001 L6.88320579,5.640345 L7.07981375,7.21380275 Z" id="Shape"></path>
                </g>
                <rect id="Rectangle-7-Copy-9" stroke="#F5A623" x="189.5" y="0.5" width="191" height="302.010462"></rect>
            </g>
        </g>
    </g>
</svg>