<?xml version="1.0" encoding="UTF-8"?>
<svg width="24px" height="24px" viewBox="0 0 24 24" version="1.1" xmlns="http://www.w3.org/2000/svg" xmlns:xlink="http://www.w3.org/1999/xlink">
    <!-- Generator: sketchtool 44.1 (41455) - http://www.bohemiancoding.com/sketch -->
    <title>EB2D95A5-BEBF-4056-AD09-BF76ACFD893A</title>
    <desc>Created with sketchtool.</desc>
    <defs></defs>
    <g id="个人中心" stroke="none" stroke-width="1" fill="none" fill-rule="evenodd" opacity="0.800000012">
        <g id="10-上传材料-hover删除" transform="translate(-548.000000, -320.000000)" fill-rule="nonzero" fill="#FFFFFF">
            <g id="垃圾桶" transform="translate(548.000000, 320.000000)">
                <path d="M22.9669022,5.27173004 L22.9669022,6.22085899 C22.9669022,6.35948886 22.922149,6.47310233 22.8328057,6.56208926 C22.743495,6.65104371 22.6292309,6.69542346 22.4904373,6.69542346 L21.0608468,6.69542346 L21.0608468,20.7560407 C21.0608468,21.5769038 20.8274257,22.2860052 20.3609748,22.884547 C19.8941325,23.4826991 19.3334455,23.7817588 18.6781309,23.7817588 L6.28857556,23.7817588 C5.6334567,23.7817588 5.07237826,23.4924457 4.60592737,22.9140794 C4.13928077,22.3356806 3.90605533,21.6363583 3.90605533,20.8154953 L3.90605533,6.69542346 L2.4764649,6.69542346 C2.33747559,6.69542346 2.22340714,6.65104371 2.13409648,6.56208926 C2.04478581,6.47313482 2,6.35952135 2,6.22085899 L2,5.27173004 C2,5.1332951 2.04475319,5.01948669 2.13409648,4.93049976 C2.22340714,4.84154532 2.33747559,4.79693814 2.4764649,4.79693814 L7.0779866,4.79693814 L8.12022708,2.32008651 C8.26923041,1.95445712 8.53719503,1.64295413 8.92434926,1.38561003 C9.3115035,1.12868829 9.70355058,1 10.1008819,1 L14.865955,1 C15.2628949,1 15.6551703,1.1286558 16.0424877,1.38561003 C16.4296419,1.64295413 16.6976065,1.95442463 16.8466099,2.32008651 L17.8888503,4.79693814 L22.490372,4.79693814 C22.6291656,4.79693814 22.7434298,4.84151283 22.8327405,4.93049976 C22.9221164,5.01948669 22.9669022,5.1332951 22.9669022,5.27173004 L22.9669022,5.27173004 Z M19.1547589,20.7560407 L19.1547589,6.69542346 L5.81211066,6.69542346 L5.81211066,20.7560407 C5.81211066,20.9736835 5.84684983,21.1740097 5.9163608,21.3568244 C5.98564343,21.5398665 6.05779654,21.6733956 6.13220034,21.7572818 C6.20679987,21.8413629 6.25892494,21.883306 6.28857556,21.883306 L18.6780983,21.883306 C18.7079446,21.883306 18.7600697,21.8413629 18.8344735,21.7572818 C18.909073,21.6733956 18.9808347,21.539834 19.0505414,21.3568244 C19.119824,21.1740097 19.1547589,20.9736835 19.1547589,20.7560407 L19.1547589,20.7560407 Z M9.62425393,10.0177971 L9.62425393,18.5609648 C9.62425393,18.6995947 9.57969645,18.8132082 9.49038579,18.9021951 C9.40107512,18.9911495 9.28681096,19.0355293 9.14778903,19.0355293 L8.19485922,19.0355293 C8.05567419,19.0355293 7.94160574,18.9911495 7.85226246,18.9021951 C7.76291917,18.8132406 7.71816598,18.6996272 7.71816598,18.5609648 L7.71816598,10.0177971 C7.71816598,9.87955712 7.76291917,9.76574872 7.85226246,9.67679428 C7.94157312,9.58783983 8.05564157,9.54323266 8.19485922,9.54323266 L9.14778903,9.54323266 C9.28677834,9.54323266 9.4010425,9.58780735 9.49038579,9.67679428 C9.57969645,9.76574872 9.62425393,9.87955712 9.62425393,10.0177971 Z M9.14778903,4.79697063 L15.8191131,4.79697063 L15.1043016,3.06177422 C15.0347907,2.97259236 14.9501771,2.91843346 14.8510482,2.89848532 L10.1305652,2.89848532 C10.0312405,2.91843346 9.94679004,2.97259236 9.8775074,3.06177422 L9.14778903,4.79697063 L9.14778903,4.79697063 Z M13.4363646,10.0177971 L13.4363646,18.5609648 C13.4363646,18.6995947 13.3918071,18.8132082 13.3024964,18.9021951 C13.2131858,18.991182 13.0989216,19.0355293 12.9598997,19.0355293 L12.0069699,19.0355293 C11.8677848,19.0355293 11.7537164,18.9911495 11.6643731,18.9021951 C11.5750624,18.8132406 11.5302766,18.6996272 11.5302766,18.5609648 L11.5302766,10.0177971 C11.5302766,9.87955712 11.5750298,9.76574872 11.6643731,9.67679428 C11.7536838,9.58783983 11.8677522,9.54323266 12.0069699,9.54323266 L12.9598997,9.54323266 C13.098889,9.54323266 13.2131532,9.58780735 13.3024964,9.67679428 C13.3918071,9.76574872 13.4363646,9.87955712 13.4363646,10.0177971 Z M17.2487036,10.0177971 L17.2487036,18.5609648 C17.2487036,18.6995947 17.2039504,18.8132082 17.1146071,18.9021951 C17.0252638,18.991182 16.9110323,19.0355293 16.7720103,19.0355293 L15.8190805,19.0355293 C15.6798955,19.0355293 15.5658271,18.9911495 15.4764838,18.9021951 C15.3871731,18.8132406 15.3426156,18.6996272 15.3426156,18.5609648 L15.3426156,10.0177971 C15.3426156,9.87955712 15.3871731,9.76574872 15.4764838,9.67679428 C15.5657944,9.58783983 15.6798629,9.54323266 15.8190805,9.54323266 L16.7720103,9.54323266 C16.9109997,9.54323266 17.0252638,9.58780735 17.1146071,9.67679428 C17.2039504,9.76574872 17.2487036,9.87955712 17.2487036,10.0177971 Z" id="Shape"></path>
            </g>
        </g>
    </g>
</svg>